<?xml version="1.0" encoding="UTF-8" standalone="no"?> <!-- Created with Vectornator for iOS (http://vectornator.io/) --><!DOCTYPE svg PUBLIC "-//W3C//DTD SVG 1.1//EN" "http://www.w3.org/Graphics/SVG/1.1/DTD/svg11.dtd">
<svg height="100%" style="fill-rule:nonzero;clip-rule:evenodd;stroke-linecap:round;stroke-linejoin:round;" xmlns:xlink="http://www.w3.org/1999/xlink" xmlns="http://www.w3.org/2000/svg" xml:space="preserve" width="100%" xmlns:vectornator="http://vectornator.io" version="1.1" viewBox="0 0 1000 1000">
<metadata>
<vectornator:setting key="DimensionsVisible" value="1"/>
<vectornator:setting key="PencilOnly" value="0"/>
<vectornator:setting key="SnapToPoints" value="0"/>
<vectornator:setting key="OutlineMode" value="0"/>
<vectornator:setting key="CMYKEnabledKey" value="0"/>
<vectornator:setting key="RulersVisible" value="1"/>
<vectornator:setting key="SnapToEdges" value="0"/>
<vectornator:setting key="GuidesVisible" value="1"/>
<vectornator:setting key="DisplayWhiteBackground" value="0"/>
<vectornator:setting key="doHistoryDisabled" value="0"/>
<vectornator:setting key="SnapToGuides" value="1"/>
<vectornator:setting key="TimeLapseWatermarkDisabled" value="0"/>
<vectornator:setting key="Units" value="Points"/>
<vectornator:setting key="DynamicGuides" value="0"/>
<vectornator:setting key="IsolateActiveLayer" value="0"/>
<vectornator:setting key="SnapToGrid" value="0"/>
</metadata>
<defs/>
<g id="Layer 2" vectornator:layerName="Layer 2">
<path stroke="#000000" stroke-width="1" d="M236.993+150.104C233.592+149.615+231.664+150.82+230.332+154.361C226.021+165.819+213.928+251.785+209.422+303.13L208.128+317.655L164.737+317.655C79.3988+317.69+37.9684+319.337+34.5638+322.744C30.3745+326.933+32.4558+329.66+44.4639+335.788C61.9343+344.706+70.6443+357.424+70.6443+373.998C70.6443+377.204+72.3112+380.774+74.2533+381.861C76.3316+383.027+156.196+383.676+268.541+383.528L459.315+383.341L459.315+377.977C459.315+367.132+415.602+341.381+373.18+327.185L350.144+319.505L306.751+319.135L263.36+318.673L260.77+292.86C256.243+247.901+246.956+174.298+244.303+162.316C242.234+152.979+240.875+150.66+236.993+150.104Z" fill="none" stroke-linecap="round" opacity="1" stroke-linejoin="round"/>
<path stroke="#000000" stroke-width="1" d="M238.565+409.616C222.608+409.613+206.461+412.24+190.734+417.666C111.228+445.105+70.9641+536.779+104.599+613.713C122.904+655.581+157.295+684.403+204.797+697.719C212.654+699.922+224.035+700.695+242.915+700.218C265.288+699.65+272.529+698.587+285.656+693.927C322.483+680.856+351.944+654.915+368.553+621.114C392.951+571.468+389.916+519.504+360.041+474.566C332.552+433.215+286.441+409.631+238.565+409.616ZM242.544+466.702C262.502+467.75+280.792+476.07+296.945+491.402C318.386+511.756+328.126+540.255+323.034+567.637C316.589+602.3+292.528+628.625+259.198+637.306C241.567+641.895+227.226+641.391+210.348+635.639C180.47+625.455+161.294+605.08+153.265+574.947C140.538+527.193+172.968+476.869+222.099+468.088C229.115+466.836+235.892+466.35+242.544+466.702Z" fill="none" stroke-linecap="round" opacity="1" stroke-linejoin="round"/>
<path stroke="#000000" stroke-width="1" d="M49.3667+735.467C23.5918+735.801+21.1198+736.758+20.4092+738.611C17.4012+746.451+41.9622+764.762+79.6208+782.649C114.351+799.149+125.131+802.05+151.877+802.358C164.643+802.503+181.912+803.282+190.178+804.022L205.167+805.319L208.776+835.478C210.76+852.057+215.42+893.745+219.138+928.088C222.854+962.431+226.874+992.697+228.02+995.441C231.013+1002.63+238.835+1001.02+241.342+992.667C249.002+967.117+263.328+861.611+265.027+818.271L265.581+805.319L335.524+804.854C374.012+804.596+417.384+804.339+431.93+804.3C454.383+804.241+458.628+803.681+459.777+800.691C461.79+795.445+458.14+791.208+448.858+788.017C433.967+782.898+419.531+764.655+419.531+750.918C419.531+747.543+418.255+743.07+416.757+741.018C414.217+737.545+400.551+737.231+217.933+736.02C124.169+735.399+75.1415+735.129+49.3667+735.467Z" fill="none" stroke-linecap="round" opacity="1" stroke-linejoin="round"/>
</g>
</svg>
