<?xml version="1.0" encoding="UTF-8" standalone="no"?> <!-- Created with Vectornator for iOS (http://vectornator.io/) --><!DOCTYPE svg PUBLIC "-//W3C//DTD SVG 1.1//EN" "http://www.w3.org/Graphics/SVG/1.1/DTD/svg11.dtd">
<svg height="100%" style="fill-rule:nonzero;clip-rule:evenodd;stroke-linecap:round;stroke-linejoin:round;" xmlns:xlink="http://www.w3.org/1999/xlink" xmlns="http://www.w3.org/2000/svg" xml:space="preserve" width="100%" xmlns:vectornator="http://vectornator.io" version="1.1" viewBox="0 0 1000 1000">
<metadata>
<vectornator:setting key="DimensionsVisible" value="1"/>
<vectornator:setting key="PencilOnly" value="0"/>
<vectornator:setting key="SnapToPoints" value="0"/>
<vectornator:setting key="OutlineMode" value="0"/>
<vectornator:setting key="CMYKEnabledKey" value="0"/>
<vectornator:setting key="RulersVisible" value="1"/>
<vectornator:setting key="SnapToEdges" value="0"/>
<vectornator:setting key="GuidesVisible" value="1"/>
<vectornator:setting key="DisplayWhiteBackground" value="0"/>
<vectornator:setting key="doHistoryDisabled" value="0"/>
<vectornator:setting key="SnapToGuides" value="1"/>
<vectornator:setting key="TimeLapseWatermarkDisabled" value="0"/>
<vectornator:setting key="Units" value="Points"/>
<vectornator:setting key="DynamicGuides" value="0"/>
<vectornator:setting key="IsolateActiveLayer" value="0"/>
<vectornator:setting key="SnapToGrid" value="0"/>
</metadata>
<defs/>
<g id="Layer 1" vectornator:layerName="Layer 1">
<path stroke="#000000" stroke-width="1" d="M187.818+112.307C186.778+112.122+185.755+112.277+184.742+112.864C182.983+113.889+168.209+134.718+151.956+159.063C123.733+201.348+122.43+203.822+122.43+214.296C122.43+220.329+118.448+284.28+113.581+356.433C101.214+539.825+102.246+565.011+124.108+606.614C135.36+628.029+156.164+648.282+178.131+659.054L195.546+667.531L197.037+748.844L198.527+830.064L214.828+903.833C223.787+944.369+232.011+979.671+233.084+982.353C235.185+987.602+243.304+989.075+244.821+984.496C245.313+983.006+251.763+913.052+259.071+829.039C266.377+745.028+272.746+675.67+273.229+674.89C273.712+674.109+277.038+672.916+280.68+672.186C292.82+669.76+316.26+659.414+330.513+650.205C372.124+623.32+401.921+573.556+402.046+530.704L402.046+519.712L419.93+518.314C429.766+517.551+460.799+516.83+488.856+516.824L539.802+516.824L586.374+506.299C611.968+500.496+636.594+495.09+641.049+494.285C650.504+492.577+655.219+486.285+650.552+481.617C648.417+479.486+630.406+477.307+588.144+473.886C489.022+465.859+468.88+464.765+390.029+463.361C317.052+462.062+313.678+462.175+302.29+466.434C285.888+472.571+250.66+479.954+230.291+481.525C217.632+482.5+212.807+483.796+211.382+486.461C210.327+488.431+210.104+490.979+210.917+492.234C211.728+493.492+225.406+500.04+241.373+506.764L270.433+519.059L305.082+519.059L339.639+519.059L338.149+529.307C332.781+565.58+311.1+594.292+280.028+606.241C263.903+612.444+234.267+612.256+217.436+605.869C186.366+594.08+165.771+558.567+165.836+516.919C165.848+507.93+172.051+414.256+179.714+308.744C191.326+148.807+193.207+116.438+190.798+113.982C189.883+113.049+188.858+112.491+187.818+112.307Z" fill="none" stroke-linecap="round" opacity="1" stroke-linejoin="round"/>
<path stroke="#000000" stroke-width="1" d="M60.8633+224.451C59.4684+224.054+58.0974+224.814+56.5773+226.406C54.5386+228.546+47.9336+267.907+36.831+344.046L20.1607+458.518L26.7715+563.023C34.8579+689.822+35.2125+694.195+36.9264+696.964C37.6745+698.177+40.4256+698.913+42.9799+698.546C48.3539+697.777+47.4091+701.628+58.2553+630.646C72.9019+534.794+83.8584+433.642+88.1535+354.29L90.669+307.719L78.6544+267.574C69.4861+237.151+65.0481+225.634+60.8633+224.451Z" fill="none" stroke-linecap="round" opacity="1" stroke-linejoin="round"/>
</g>
</svg>
