<?xml version="1.0" encoding="UTF-8" standalone="no"?> <!-- Created with Vectornator for iOS (http://vectornator.io/) --><!DOCTYPE svg PUBLIC "-//W3C//DTD SVG 1.1//EN" "http://www.w3.org/Graphics/SVG/1.1/DTD/svg11.dtd">
<svg height="100%" style="fill-rule:nonzero;clip-rule:evenodd;stroke-linecap:round;stroke-linejoin:round;" xmlns:xlink="http://www.w3.org/1999/xlink" xmlns="http://www.w3.org/2000/svg" xml:space="preserve" width="100%" xmlns:vectornator="http://vectornator.io" version="1.1" viewBox="0 0 1000 1000">
<metadata>
<vectornator:setting key="DimensionsVisible" value="1"/>
<vectornator:setting key="PencilOnly" value="0"/>
<vectornator:setting key="SnapToPoints" value="0"/>
<vectornator:setting key="OutlineMode" value="0"/>
<vectornator:setting key="CMYKEnabledKey" value="0"/>
<vectornator:setting key="RulersVisible" value="1"/>
<vectornator:setting key="SnapToEdges" value="0"/>
<vectornator:setting key="GuidesVisible" value="1"/>
<vectornator:setting key="DisplayWhiteBackground" value="0"/>
<vectornator:setting key="doHistoryDisabled" value="0"/>
<vectornator:setting key="SnapToGuides" value="1"/>
<vectornator:setting key="TimeLapseWatermarkDisabled" value="0"/>
<vectornator:setting key="Units" value="Pixels"/>
<vectornator:setting key="DynamicGuides" value="0"/>
<vectornator:setting key="IsolateActiveLayer" value="0"/>
<vectornator:setting key="SnapToGrid" value="0"/>
</metadata>
<defs/>
<g id="Untitled" vectornator:layerName="Untitled">
<g opacity="1">
<path stroke="#000000" stroke-width="1" d="M966.757-0.843242C965.646-1.09487+964.461-1.04819+963.286-0.669673C956.412+1.54117+593.8+368.199+496.21+471.613C485.699+482.752+474.121+493.157+470.436+494.696C464.215+497.295+462.832+497.045+451.171+491.658C444.262+488.47+433.586+484.626+427.477+483.068C411.906+479.091+373.49+479.58+357.008+484.021C328.567+491.685+296.547+512.253+277.688+535.05C271.812+542.154+264.88+548.536+262.239+549.197C259.598+549.86+251.889+549.816+245.143+549.11C235.29+548.08+232.146+548.505+229.175+551.193C224.643+555.295+224.437+560.622+228.656+564.123C236.459+570.602+243.669+598.057+243.669+621.315C243.669+643.754+245.29+644.615+268.229+633.812C285.106+625.864+303.06+622.379+318.823+624.006C327.334+624.884+330.27+624.373+332.45+621.748C335.538+618.027+334.277+614.711+325.418+602.57C321.955+597.821+320.472+593.053+320.472+587.121C320.472+579.225+321.383+577.731+332.708+567.248C347.268+553.768+359.929+546.967+378.53+542.601C395.348+538.655+409.787+539.91+427.219+546.767C467.614+562.66+494.302+607.949+491.525+655.854C490.942+665.893+489.029+678.049+487.273+682.845C481.986+697.288+468.067+716.906+456.984+725.457C409.878+761.798+346.18+749.981+319.606+699.941C314.601+690.523+312.444+688.227+308.408+688.227C303.065+688.227+306.7+684.072+227.786+780.304C207.363+805.209+187.643+828.748+183.961+832.636C180.278+836.524+167.545+858.774+155.668+882.102C143.793+905.43+125.991+939.707+116.183+958.3C106.371+976.893+98.8981+993.478+99.5201+995.097C100.139+996.713+102.183+998.404+104.033+998.826C105.882+999.251+108.698+998.86+110.368+998.046C112.034+997.232+132.198+977.234+155.148+953.526C178.098+929.818+223.971+882.782+257.121+849.038L317.434+787.68L324.466+791.846C336.56+799.003+367.111+808.025+384.085+809.464C425.411+812.966+469.394+796.77+500.984+766.333C522.781+745.33+541.396+711.488+547.761+681.456C553.716+653.36+550.272+607.907+540.472+585.038C538.3+579.972+536.567+572.863+536.567+569.244C536.567+561.552+531.016+568.372+651.47+426.743C677.475+396.167+716.093+350.681+737.299+325.726C786.445+267.892+818.346+230.515+846.561+197.46C858.886+183.019+875.868+163.023+884.311+153.026C892.753+143.028+906.891+122.547+915.728+107.551C924.562+92.5544+940.988+64.8178+952.263+45.9335C963.539+27.0491+972.831+9.67781+972.831+7.3145C972.839+3.21355+970.09-0.0887084+966.757-0.843242Z" fill="none" stroke-linecap="round" opacity="1" stroke-linejoin="round"/>
<path stroke="#000000" stroke-width="1" d="M402.919+595.541C397.845+594.797+392.766+594.855+387.817+595.888C359.26+601.848+342.778+626.467+348.765+654.379C352.473+671.667+363.689+684.386+380.527+690.396C402.811+698.349+428.765+687.843+440.149+666.268C446.314+654.552+446.336+632.957+440.149+621.229C432.842+607.377+418.132+597.771+402.919+595.541Z" fill="none" stroke-linecap="round" opacity="1" stroke-linejoin="round"/>
<path stroke="#000000" stroke-width="1" d="M148.119+730.578C143.301+731.047+135.123+734.102+120.173+740.817C91.3082+753.789+67.7806+768.055+44.3241+786.814C21.6246+804.965+17.7416+809.436+21.326+813.022C24.5886+816.285+35.6356+812.93+59.6848+801.305C72.3467+795.187+83.1908+790.619+83.724+791.152C84.2572+791.685+80.1665+799.65+74.6986+808.856C67.5026+820.97+62.9937+831.967+58.3831+848.777C51.374+874.332+45.2422+906.971+46.9276+909.701C50.5467+915.555+57.1429+906.643+78.0831+867.783C84.1933+856.444+101.936+825.952+117.571+800.005C159.186+730.939+158.081+733.282+151.938+730.925C150.949+730.544+149.725+730.419+148.119+730.578Z" fill="none" stroke-linecap="round" opacity="1" stroke-linejoin="round"/>
<path stroke="#000000" stroke-width="1" d="M221.366+734.396C218.083+734.76+212.085+739.598+197.238+753.053C173.547+774.528+165.574+785.336+146.123+822.916C142.84+829.256+140.766+835.919+141.435+837.668C142.415+840.218+145.167+838.837+155.321+830.812C173.577+816.387+183.472+805.318+193.072+788.636C197.721+780.557+206.114+767.938+211.732+760.518C224.432+743.738+227.025+738.406+223.968+735.349C223.243+734.624+222.46+734.274+221.366+734.396Z" fill="none" stroke-linecap="round" opacity="1" stroke-linejoin="round"/>
<path stroke="#000000" stroke-width="1" d="M153.152+786.206C152.18+786.206+141.943+794.645+130.415+804.951C111.262+822.072+108.585+825.427+98.998+843.831C93.2272+854.909+88.4145+865.978+88.3229+868.478C88.0868+874.99+90.9972+874.187+103.944+864.137C124.614+848.096+132.798+837.341+154.973+796.881C157.439+792.385+156.359+786.206+153.152+786.206Z" fill="none" stroke-linecap="round" opacity="1" stroke-linejoin="round"/>
</g>
</g>
</svg>
