<?xml version="1.0" encoding="UTF-8" standalone="no"?> <!-- Created with Vectornator for iOS (http://vectornator.io/) --><!DOCTYPE svg PUBLIC "-//W3C//DTD SVG 1.1//EN" "http://www.w3.org/Graphics/SVG/1.1/DTD/svg11.dtd">
<svg height="100%" style="fill-rule:nonzero;clip-rule:evenodd;stroke-linecap:round;stroke-linejoin:round;" xmlns:xlink="http://www.w3.org/1999/xlink" xmlns="http://www.w3.org/2000/svg" xml:space="preserve" width="100%" xmlns:vectornator="http://vectornator.io" version="1.1" viewBox="0 0 1000 1000">
<metadata>
<vectornator:setting key="DimensionsVisible" value="1"/>
<vectornator:setting key="PencilOnly" value="0"/>
<vectornator:setting key="SnapToPoints" value="0"/>
<vectornator:setting key="OutlineMode" value="0"/>
<vectornator:setting key="CMYKEnabledKey" value="0"/>
<vectornator:setting key="RulersVisible" value="1"/>
<vectornator:setting key="SnapToEdges" value="0"/>
<vectornator:setting key="GuidesVisible" value="1"/>
<vectornator:setting key="DisplayWhiteBackground" value="0"/>
<vectornator:setting key="doHistoryDisabled" value="0"/>
<vectornator:setting key="SnapToGuides" value="1"/>
<vectornator:setting key="TimeLapseWatermarkDisabled" value="0"/>
<vectornator:setting key="Units" value="Points"/>
<vectornator:setting key="DynamicGuides" value="0"/>
<vectornator:setting key="IsolateActiveLayer" value="0"/>
<vectornator:setting key="SnapToGrid" value="0"/>
</metadata>
<defs/>
<g id="Layer 1" vectornator:layerName="Layer 1">
<path stroke="#000000" stroke-width="1" d="M665.412+129.31C662.418+129.31+659.515+130.309+658.365+132.148C657.388+133.713+654.757+168.265+652.59+208.979C650.423+249.694+647.899+294.177+647.012+307.829C645.572+330.003+645.885+332.915+649.458+335.527C655.487+339.937+659.562+337.156+669.13+322.019C677.686+308.489+677.811+308.352+679.994+314.092C683.837+324.202+696.371+385.691+699.766+411.182C701.554+424.617+703.061+443.916+703.092+454.051L703.092+472.451L691.153+485.173C678.807+498.292+638.277+527.165+615.399+539.198C605.768+544.266+599.317+546.051+590.541+546.051L578.696+546.051L554.915+521.581C541.805+508.114+496.183+461.283+453.617+417.445C411.051+373.611+356.763+317.688+332.942+293.247C309.117+268.805+272.201+230.903+250.923+208.979C229.648+187.056+210.512+168.208+208.348+167.09C203.215+164.437+197.487+169.142+197.487+175.994C197.487+185.352+228.314+246.706+241.233+263.005C247.967+271.495+269.358+299.351+288.704+324.86C356.121+413.762+412.589+487.907+497.658+599.293C532.889+645.42+555.169+670.115+576.739+687.181C606.482+710.711+681.373+750.442+747.528+777.712C762.561+783.91+780.021+791.16+786.285+793.763C803.595+800.966+812.414+799.666+812.414+789.948C812.414+786.212+808.08+781.514+712.391+683.169C679.099+648.953+651.51+619.597+651.121+617.887C650.075+613.265+660.151+598.441+672.165+586.96C695.118+565.027+722.732+550.855+746.45+548.888C758.58+547.883+759.426+548.221+767.393+556.424C776.545+565.841+781.531+565.838+785.111+556.424C786.485+552.806+786.529+535.327+785.208+509.054L783.053+467.459L770.723+429.876C763.917+409.205+749.88+366.201+739.598+334.256C729.319+302.31+718.52+269.034+715.62+260.264C712.723+251.495+702.422+219.665+692.719+189.599C683.014+159.533+674.072+133.713+672.851+132.148C671.416+130.309+668.406+129.31+665.412+129.31Z" fill="none" stroke-linecap="round" opacity="1" stroke-linejoin="round"/>
<path stroke="#000000" stroke-width="1" d="M350.656+801.592C336.853+801.433+321.579+801.483+303.972+801.79C247.128+802.779+234.368+803.722+195.138+809.814C170.709+813.609+135.337+820.437+116.546+824.985C97.7544+829.532+72.2106+834.336+59.683+835.652C24.1202+839.391+21.0352+840.256+20.2397+847.005C19.8639+850.206+20.863+853.842+22.4916+855.129C24.1202+856.42+45.4328+860.215+69.8617+863.548C113.881+869.548+150.527+874.735+174.68+878.424C181.57+879.477+193.434+880.529+201.107+880.673C216.15+880.961+367.487+877.525+485.719+874.215L558.73+872.16L584.766+859.827C614.415+845.787+618.202+842.595+614.224+835.163C611.747+830.537+610.573+830.346+598.662+832.128C575.796+835.555+543.97+834.026+528.88+828.802C509.75+822.178+490.301+817.578+455.966+811.38C419.955+804.881+392.066+802.075+350.656+801.592Z" fill="none" stroke-linecap="round" opacity="1" stroke-linejoin="round"/>
</g>
</svg>
