<?xml version="1.0" encoding="UTF-8" standalone="no"?> <!-- Created with Vectornator for iOS (http://vectornator.io/) --><!DOCTYPE svg PUBLIC "-//W3C//DTD SVG 1.1//EN" "http://www.w3.org/Graphics/SVG/1.1/DTD/svg11.dtd">
<svg height="100%" style="fill-rule:nonzero;clip-rule:evenodd;stroke-linecap:round;stroke-linejoin:round;" xmlns:xlink="http://www.w3.org/1999/xlink" xmlns="http://www.w3.org/2000/svg" xml:space="preserve" width="100%" xmlns:vectornator="http://vectornator.io" version="1.1" viewBox="0 0 1000 1000">
<metadata>
<vectornator:setting key="DimensionsVisible" value="1"/>
<vectornator:setting key="PencilOnly" value="0"/>
<vectornator:setting key="SnapToPoints" value="0"/>
<vectornator:setting key="OutlineMode" value="0"/>
<vectornator:setting key="CMYKEnabledKey" value="0"/>
<vectornator:setting key="RulersVisible" value="1"/>
<vectornator:setting key="SnapToEdges" value="0"/>
<vectornator:setting key="GuidesVisible" value="1"/>
<vectornator:setting key="DisplayWhiteBackground" value="0"/>
<vectornator:setting key="doHistoryDisabled" value="0"/>
<vectornator:setting key="SnapToGuides" value="1"/>
<vectornator:setting key="TimeLapseWatermarkDisabled" value="0"/>
<vectornator:setting key="Units" value="Points"/>
<vectornator:setting key="DynamicGuides" value="0"/>
<vectornator:setting key="IsolateActiveLayer" value="0"/>
<vectornator:setting key="SnapToGrid" value="0"/>
</metadata>
<defs/>
<g id="Layer 1" vectornator:layerName="Layer 1">
<path stroke="#000000" stroke-width="1" d="M199.462+371.581C193.358+372.175+192.91+372.729+193.087+380.689C193.213+386.358+202.575+412.025+221.322+458.109C236.735+496+250.935+529.339+252.839+532.253C256.881+538.447+282.974+585.963+298.287+614.958C311.071+639.156+314.097+642.505+334.176+654.397C350.423+664.018+358.289+665.245+362.23+658.95C363.996+656.128+363.244+652.683+358.767+643.557C346.587+618.718+352.918+607.371+388.098+591.092C428.953+572.188+496.72+563.502+541.848+571.418C564.805+575.446+579.492+580.022+586.114+585.173C591.002+588.971+591.489+590.661+591.489+606.669C591.489+620.336+592.165+624.451+594.858+626.159C600.291+629.601+603.736+626.984+616.902+609.493C628.835+593.634+630.009+590.868+651.33+527.607C674.764+458.089+675.927+451.735+665.268+451.735C661.197+451.735+655.166+456.218+642.586+468.401C600.638+509.035+593.217+514.987+582.564+516.587C577.058+517.412+557.445+516.838+539.024+515.31C509.408+512.853+501.57+512.941+471.167+516.129C431.725+520.265+400.891+526.844+370.974+537.535C358.52+541.986+346.103+545.005+340.28+545.005C331.728+545.005+329.562+544.029+322.972+537.08C314.024+527.645+212.566+385.428+208.661+376.862C206.437+371.98+204.822+371.056+199.462+371.581Z" fill="none" stroke-linecap="round" opacity="1" stroke-linejoin="round"/>
<path stroke="#000000" stroke-width="1" d="M805.538+435.246C799.887+433.824+785.914+445.774+722.105+499.099C697.149+519.951+679.384+536.238+679.384+538.354C679.384+544.688+684.147+547.098+696.782+547.098C703.544+547.098+709.079+547.579+709.079+548.191C709.079+551.362+693.104+580.174+682.028+597.012C666.017+621.347+645.836+643.038+633.661+648.932C622.816+654.181+617.954+653.613+580.832+643.193C560.762+637.559+557.308+637.287+516.161+637.273C478.063+637.258+470.03+637.885+450.674+642.283C411.847+651.103+375.061+666.822+350.571+685.091C337.796+694.623+332.188+696.567+323.791+694.474C317.472+692.897+307.722+683.273+244.823+617.051C191.525+560.94+193.189+562.601+162.209+539.357C133.49+517.808+127.221+512.967+70.3056+469.678C30.7124+439.563+24.0552+436.491+22.7582+447.634C22.1111+453.192+28.3398+462.082+83.5121+534.346C94.6375+548.92+109.129+568.049+115.755+576.793C122.383+585.537+138.673+603.197+151.917+616.051C165.159+628.905+206.856+669.437+244.549+706.133C330.818+790.123+326.481+786.401+346.016+794.483C355.832+798.546+365.55+801.128+369.972+800.86C376.361+800.47+377.41+799.604+377.987+794.576C378.433+790.7+377.529+788.251+375.256+787.38C373.37+786.654+368.529+781.807+364.506+776.54C357.03+766.747+355.328+758.122+359.315+750.672C361.944+745.761+384.51+729.637+398.938+722.344C467.422+687.735+560.255+682.139+611.711+709.592C624.326+716.325+627.444+721.549+627.468+735.734C627.488+746.918+627.701+747.469+633.387+748.122C638.506+748.711+642.531+745.519+662.718+724.804L686.126+700.758L730.756+610.676C815.489+439.624+813.128+444.827+810.001+440.076C808.412+437.663+807.421+435.722+805.538+435.246Z" fill="none" stroke-linecap="round" opacity="1" stroke-linejoin="round"/>
<path stroke="#000000" stroke-width="1" d="M27.4042+653.304C24.1339+653.103+21.7555+654.12+20.8461+656.492C17.911+664.141+23.7637+670.565+50.9025+689.19C103.318+725.163+201.54+790.181+226.877+805.687C240.868+814.248+255.707+823.449+259.851+826.18C263.993+828.914+269.659+831.214+272.513+831.281C275.363+831.351+288.707+833.63+302.114+836.382C333.232+842.771+341.501+843.033+344.378+837.658C347.523+831.78+345.654+828.684+334.357+821.173C328.848+817.506+317.233+809.514+308.489+803.411C290.899+791.125+268.374+775.704+226.877+747.483C211.721+737.177+197.762+727.471+195.909+725.897C194.058+724.323+184.477+720.31+174.596+716.972C136.204+703.993+61.4829+671.261+39.2437+657.676C34.8308+654.98+30.6745+653.502+27.4042+653.304Z" fill="none" stroke-linecap="round" opacity="1" stroke-linejoin="round"/>
</g>
</svg>
