<?xml version="1.0" encoding="UTF-8" standalone="no"?> <!-- Created with Vectornator for iOS (http://vectornator.io/) --><!DOCTYPE svg PUBLIC "-//W3C//DTD SVG 1.1//EN" "http://www.w3.org/Graphics/SVG/1.1/DTD/svg11.dtd">
<svg height="100%" style="fill-rule:nonzero;clip-rule:evenodd;stroke-linecap:round;stroke-linejoin:round;" xmlns:xlink="http://www.w3.org/1999/xlink" xmlns="http://www.w3.org/2000/svg" xml:space="preserve" width="100%" xmlns:vectornator="http://vectornator.io" version="1.1" viewBox="0 0 1000 1000">
<metadata>
<vectornator:setting key="DimensionsVisible" value="1"/>
<vectornator:setting key="PencilOnly" value="0"/>
<vectornator:setting key="SnapToPoints" value="0"/>
<vectornator:setting key="OutlineMode" value="0"/>
<vectornator:setting key="CMYKEnabledKey" value="0"/>
<vectornator:setting key="RulersVisible" value="1"/>
<vectornator:setting key="SnapToEdges" value="0"/>
<vectornator:setting key="GuidesVisible" value="1"/>
<vectornator:setting key="DisplayWhiteBackground" value="0"/>
<vectornator:setting key="doHistoryDisabled" value="0"/>
<vectornator:setting key="SnapToGuides" value="1"/>
<vectornator:setting key="TimeLapseWatermarkDisabled" value="0"/>
<vectornator:setting key="Units" value="Points"/>
<vectornator:setting key="DynamicGuides" value="0"/>
<vectornator:setting key="IsolateActiveLayer" value="0"/>
<vectornator:setting key="SnapToGrid" value="0"/>
</metadata>
<defs/>
<g id="Layer 1" vectornator:layerName="Layer 1">
<path stroke="#000000" stroke-width="1" d="M402.601+303.84C400.701+303.683+398.94+304.388+397.747+305.932C396.827+307.126+394.705+324.886+393.041+345.439C391.38+365.992+389.306+387.159+388.486+392.417C387.669+397.675+386.55+408.637+385.948+416.763C385.346+424.889+384.065+438.138+383.109+446.264C382.153+454.39+380.263+472.777+378.927+487.117C377.593+501.456+374.947+528.864+373.026+547.983C371.105+567.102+368.746+590.972+367.799+601.01C366.853+611.047+365.125+627.265+363.99+637.083C362.04+653.951+361.762+654.852+358.314+653.886C311.226+640.689+273.695+620.98+253.83+598.993C247.681+592.186+247.384+591.326+248.08+582.039C249.365+564.92+265.144+538.337+289.305+512.359C296.317+504.821+298.093+501.695+297.744+497.721C297.053+489.839+292.596+488.211+284.75+492.941C281.127+495.125+269.682+501.048+259.358+506.086C241.393+514.854+239.416+516.369+213.278+542.008C198.255+556.744+173.864+580.545+159.056+594.885C144.251+609.224+120.787+631.93+106.928+645.371C93.0661+658.814+80.1511+670.957+78.1723+672.334C75.0869+674.478+58.6731+696.412+35.9762+728.719C32.6184+733.499+27.6211+740.451+24.9229+744.179C19.6976+751.404+18.7656+757.142+22.1602+760.536C25.8861+764.261+29.3371+762.761+39.1141+753.292C44.3982+748.17+67.1357+729.524+89.6007+711.841C112.066+694.159+139.332+672.587+150.244+663.893C195.206+628.073+202.227+626.214+226.422+643.954C257.699+666.887+303.243+689.424+338.449+699.369C347.351+701.885+355.176+704.442+355.85+705.045C357.133+706.192+355.467+727.605+351.144+764.567C347.509+795.648+347.691+801.678+352.712+808.334C358.486+815.986+373.872+845.112+379.151+858.447C390.279+886.555+396.607+909.876+398.942+931.189C400.395+944.46+401.463+948.312+404.393+950.757C406.401+952.43+408.621+953.819+409.324+953.819C410.024+953.819+411.821+952.43+413.281+950.757C416.142+947.481+415.812+954.99+419.854+794.74C420.915+752.678+422.028+717.374+422.394+716.248C422.863+714.807+426.818+714.458+435.761+715.128C442.749+715.651+460.267+715.214+474.673+714.157C513.048+711.342+541.306+705.066+577.14+691.377C587.656+687.362+599.225+683.213+602.906+682.116L609.626+680.101L622.995+693.991C630.339+701.625+644.416+717.666+654.288+729.615C664.159+741.565+674.318+752.9+676.842+754.786C679.368+756.669+691.382+766.243+703.58+776.07C725.44+793.681+731.207+796.463+735.844+791.829C739.158+788.514+738.422+786.306+729.42+771.888C724.755+764.412+707.045+734.844+690.063+706.165C673.078+677.487+649.609+637.934+637.932+618.337C626.255+598.74+614.58+579.102+612.016+574.647C609.258+569.85+600.879+560.97+591.403+552.913C582.601+545.428+572.544+536.342+569.074+532.673C564.11+527.427+561.718+526.101+557.796+526.55C549.238+527.528+550.153+534.315+561.156+550.97C576.246+573.813+583.872+592.007+586.026+610.345C587.95+626.711+586.09+631.515+575.72+637.456C562.97+644.762+540.388+652.682+518.138+657.619C495.523+662.641+453.661+666.096+435.687+664.416L422.841+663.221L423.811+609.898C424.359+580.595+425.75+524.736+426.875+485.697C428.691+422.604+428.574+413.044+426.127+399.661C421.197+372.689+416.704+346.725+413.731+328.112C412.077+317.764+409.67+308.553+408.129+306.828C406.54+305.05+404.501+304+402.601+303.84Z" fill="none" stroke-linecap="round" opacity="1" stroke-linejoin="round"/>
</g>
</svg>
