<?xml version="1.0" encoding="UTF-8" standalone="no"?> <!-- Created with Vectornator for iOS (http://vectornator.io/) --><!DOCTYPE svg PUBLIC "-//W3C//DTD SVG 1.1//EN" "http://www.w3.org/Graphics/SVG/1.1/DTD/svg11.dtd">
<svg height="100%" style="fill-rule:nonzero;clip-rule:evenodd;stroke-linecap:round;stroke-linejoin:round;" xmlns:xlink="http://www.w3.org/1999/xlink" xmlns="http://www.w3.org/2000/svg" xml:space="preserve" width="100%" xmlns:vectornator="http://vectornator.io" version="1.1" viewBox="0 0 1000 1000">
<metadata>
<vectornator:setting key="DimensionsVisible" value="1"/>
<vectornator:setting key="PencilOnly" value="0"/>
<vectornator:setting key="SnapToPoints" value="0"/>
<vectornator:setting key="OutlineMode" value="0"/>
<vectornator:setting key="CMYKEnabledKey" value="0"/>
<vectornator:setting key="RulersVisible" value="1"/>
<vectornator:setting key="SnapToEdges" value="0"/>
<vectornator:setting key="GuidesVisible" value="1"/>
<vectornator:setting key="DisplayWhiteBackground" value="0"/>
<vectornator:setting key="doHistoryDisabled" value="0"/>
<vectornator:setting key="SnapToGuides" value="1"/>
<vectornator:setting key="TimeLapseWatermarkDisabled" value="0"/>
<vectornator:setting key="Units" value="Points"/>
<vectornator:setting key="DynamicGuides" value="0"/>
<vectornator:setting key="IsolateActiveLayer" value="0"/>
<vectornator:setting key="SnapToGrid" value="0"/>
</metadata>
<defs/>
<g id="Layer 1" vectornator:layerName="Layer 1">
<path stroke="#000000" stroke-width="1" d="M27.2292+180.224C19.8227+180.224+18.4534+186.418+22.1091+203.847C23.9224+212.491+26.111+223.077+26.8988+227.307C27.6891+231.536+29.7878+241.895+31.6064+250.353C33.4277+258.812+35.5952+269.634+36.3987+274.392C40.5223+298.839+54.4894+366.283+56.2234+370.044C58.4411+374.855+67.7349+376.087+70.4311+371.945C71.2875+370.631+73.7352+361.345+75.8815+351.293C78.3874+339.564+80.7188+333.038+82.3259+333.038C84.6203+333.038+90.6443+343.574+111.732+384.418C115.964+392.613+120.881+400.162+122.636+401.185C127.566+404.063+129.464+403.654+137.999+397.468C151.469+387.712+151.073+383.213+133.952+347.412C128.644+336.311+121.037+320.35+117.019+311.892C86.8221+248.342+40.361+180.224+27.2292+180.224Z" fill="none" stroke-linecap="round" opacity="1" stroke-linejoin="round"/>
<path stroke="#000000" stroke-width="1" d="M246.704+198.397C244.547+199.428+242.218+203.57+238.528+211.613C231.555+226.802+212.553+252.143+199.87+263.239L190.04+271.912L190.534+328.412C190.82+359.503+191.116+392.745+191.195+402.261C191.274+411.777+191.618+440.702+191.94+466.606C192.263+492.513+192.416+521.058+192.271+530.045C192.025+545.043+191.787+546.13+189.131+542.601C183.067+534.541+127.537+447.953+123.876+440.834C121.761+436.727+117.376+430.539+114.127+427.042C106.406+418.731+102.492+419.852+90.2558+433.732C80.2562+445.074+78.5354+451.122+83.3171+458.016C84.763+460.104+97.3292+483.383+111.32+509.726C125.308+536.069+140.737+564.617+145.516+573.165C150.298+581.714+159.782+599.051+166.663+611.741C173.543+624.429+180.706+637.017+182.522+639.66C184.338+642.303+188.015+649.21+190.701+655.025C195.245+664.861+195.652+668.226+196.648+703.099C197.378+728.681+198.702+743.959+200.777+751.175C202.45+756.99+208.916+781.62+215.151+805.939C221.387+830.257+228.193+856.658+230.268+864.588C232.341+872.518+234.569+881.331+235.224+884.164C235.877+886.998+237.775+890.683+239.435+892.342C243.474+896.379+251.023+896.114+252.652+891.93C253.373+890.077+254.259+872.584+254.634+853.024C255.797+792.656+259.582+680.123+261.16+658.575L262.648+638.09L274.789+617.274C299.358+575.002+333.782+528.398+359.044+503.367L377.301+485.358L385.561+452.399C390.137+434.303+393.959+417.616+393.986+415.311C394.041+410.442+389.323+405.15+384.983+405.15C383.328+405.152+353.89+433.335+319.643+467.846C285.397+502.357+257.024+530.206+256.535+529.715C256.046+529.226+255.583+456.075+255.543+367.152C255.475+214.05+255.287+205.275+251.991+201.204C250.841+199.782+249.821+198.804+248.853+198.397C248.126+198.088+247.426+198.053+246.704+198.397Z" fill="none" stroke-linecap="round" opacity="1" stroke-linejoin="round"/>
</g>
</svg>
