<?xml version="1.0" encoding="UTF-8" standalone="no"?> <!-- Created with Vectornator for iOS (http://vectornator.io/) --><!DOCTYPE svg PUBLIC "-//W3C//DTD SVG 1.1//EN" "http://www.w3.org/Graphics/SVG/1.1/DTD/svg11.dtd">
<svg height="100%" style="fill-rule:nonzero;clip-rule:evenodd;stroke-linecap:round;stroke-linejoin:round;" xmlns:xlink="http://www.w3.org/1999/xlink" xmlns="http://www.w3.org/2000/svg" xml:space="preserve" width="100%" xmlns:vectornator="http://vectornator.io" version="1.1" viewBox="0 0 1000 1000">
<metadata>
<vectornator:setting key="DimensionsVisible" value="1"/>
<vectornator:setting key="PencilOnly" value="0"/>
<vectornator:setting key="SnapToPoints" value="0"/>
<vectornator:setting key="OutlineMode" value="0"/>
<vectornator:setting key="CMYKEnabledKey" value="0"/>
<vectornator:setting key="RulersVisible" value="1"/>
<vectornator:setting key="SnapToEdges" value="0"/>
<vectornator:setting key="GuidesVisible" value="1"/>
<vectornator:setting key="DisplayWhiteBackground" value="0"/>
<vectornator:setting key="doHistoryDisabled" value="0"/>
<vectornator:setting key="SnapToGuides" value="1"/>
<vectornator:setting key="TimeLapseWatermarkDisabled" value="0"/>
<vectornator:setting key="Units" value="Points"/>
<vectornator:setting key="DynamicGuides" value="0"/>
<vectornator:setting key="IsolateActiveLayer" value="0"/>
<vectornator:setting key="SnapToGrid" value="0"/>
</metadata>
<defs/>
<g id="Layer 1" vectornator:layerName="Layer 1">
<path stroke="#000000" stroke-width="1" d="M216.787+318.59C209.227+318.472+202.132+319.203+194.143+320.809C171.692+325.316+166.889+333.63+166.693+368.501C166.578+388.799+167.634+389.465+188.598+384.028C246.662+368.968+299.868+413.336+299.971+476.825C300.048+522.393+272.021+562.123+229.544+576.737C204.877+585.225+170.503+581.182+146.36+567.033C133.444+559.464+115.591+539.577+109.203+525.626C101.88+509.625+99.4779+476.541+105.044+468.043C109.318+461.519+117.617+456.988+129.075+454.92C146.41+451.788+147.525+444.71+132.402+433.847C120.669+425.415+109.537+408.435+103.287+389.388C97.8749+372.89+96.8456+371.192+91.8265+370.441C88.928+370.006+86.0117+371.819+83.4179+375.709C70.9751+394.362+48.284+410.727+34.7084+410.831C19.6155+410.949+14.9424+422.703+27.0362+430.055C40.2451+438.088+42.5402+445.125+43.395+479.782C44.4952+524.324+50.7507+546.196+71.2176+577.015C82.2437+593.619+104.299+614.684+120.202+623.781C126.236+627.233+140.412+633.181+151.627+636.999C170.237+643.337+174.318+643.953+198.858+644.023C232.699+644.124+258.88+637.165+281.672+621.933C286.404+618.771+291.497+615.429+292.947+614.539C295.836+612.767+295.286+647.848+291.284+721.753C290.131+743.048+288.226+790.448+287.031+827.12C285.017+889.038+285.097+894.037+288.51+896.533C293.784+900.387+340.772+900.147+346.093+896.255C349.423+893.821+350.189+889.893+350.621+871.023C353.022+765.994+355.871+590.635+356.353+522.76L357+439.946L350.99+422.661C338.713+386.927+319.231+359.787+292.577+341.512C277.144+330.927+264.042+325.727+242.205+321.548C232.365+319.664+224.347+318.709+216.787+318.59Z" fill="none" stroke-linecap="round" opacity="1" stroke-linejoin="round"/>
<path stroke="#000000" stroke-width="1" d="M186.471+705.764C167.749+705.785+149.019+715.211+139.427+734.14C125.212+762.193+137.318+794.875+166.693+807.62C176.14+811.716+196.87+811.909+206.252+807.99C234.226+796.301+247.233+760.936+233.519+734.048C223.871+715.14+205.196+705.747+186.471+705.764Z" fill="none" stroke-linecap="round" opacity="1" stroke-linejoin="round"/>
</g>
</svg>
