<?xml version="1.0" encoding="UTF-8" standalone="no"?> <!-- Created with Vectornator for iOS (http://vectornator.io/) --><!DOCTYPE svg PUBLIC "-//W3C//DTD SVG 1.1//EN" "http://www.w3.org/Graphics/SVG/1.1/DTD/svg11.dtd">
<svg height="100%" style="fill-rule:nonzero;clip-rule:evenodd;stroke-linecap:round;stroke-linejoin:round;" xmlns:xlink="http://www.w3.org/1999/xlink" xmlns="http://www.w3.org/2000/svg" xml:space="preserve" width="100%" xmlns:vectornator="http://vectornator.io" version="1.1" viewBox="0 0 1000 1000">
<metadata>
<vectornator:setting key="DimensionsVisible" value="1"/>
<vectornator:setting key="PencilOnly" value="0"/>
<vectornator:setting key="SnapToPoints" value="0"/>
<vectornator:setting key="OutlineMode" value="0"/>
<vectornator:setting key="CMYKEnabledKey" value="0"/>
<vectornator:setting key="RulersVisible" value="1"/>
<vectornator:setting key="SnapToEdges" value="0"/>
<vectornator:setting key="GuidesVisible" value="1"/>
<vectornator:setting key="DisplayWhiteBackground" value="0"/>
<vectornator:setting key="doHistoryDisabled" value="0"/>
<vectornator:setting key="SnapToGuides" value="1"/>
<vectornator:setting key="TimeLapseWatermarkDisabled" value="0"/>
<vectornator:setting key="Units" value="Points"/>
<vectornator:setting key="DynamicGuides" value="0"/>
<vectornator:setting key="IsolateActiveLayer" value="0"/>
<vectornator:setting key="SnapToGrid" value="0"/>
</metadata>
<defs/>
<g id="Layer 1" vectornator:layerName="Layer 1">
<g opacity="1">
<path stroke="#000000" stroke-width="1" d="M639.473+299.613C637.283+299.613+635.042+300.863+634.448+302.413C633.853+303.966+637.399+346.36+642.358+396.665C647.314+446.974+651.005+493.449+650.597+499.9C649.466+517.622+646.186+521.031+617.146+534.007C577.38+551.78+538.456+575.494+514.077+596.952C509.416+601.054+504.802+604.45+503.779+604.45C502.756+604.45+480.038+582.259+453.276+555.099C388.686+489.549+361.626+467.116+323.595+447.583C259.612+414.717+198.062+414.063+134.186+445.524C63.4113+480.38+20.224+549.765+20.1607+628.671C20.0922+708.489+77.0812+787.682+148.602+807.126C157.229+809.472+168.162+810.471+184.194+810.503L207.429+810.585L222.422+802.923C251.821+787.906+275.583+758.175+283.804+726.219C287.321+712.546+287.732+682.625+284.544+668.384C282.683+660.068+282.752+657.658+284.956+654.624C286.432+652.594+296.303+639.849+306.954+626.282C317.603+612.715+327.837+599.183+329.693+596.293C332.794+591.463+332.838+590.981+329.941+589.868C326.893+588.697+286.851+614.595+243.514+645.808C234.023+652.644+223.809+659.736+220.774+661.545C217.74+663.356+204.879+671.679+192.269+680C170.651+694.263+165.668+698.795+168.542+701.668C170.553+703.68+194.149+698.323+217.563+690.464C229.641+686.409+240.31+683.047+241.291+683.047C245.067+683.05+241.341+710.856+236.018+722.512C225.43+745.694+210.078+754.993+183.124+754.56C123.833+753.611+73.8173+688.776+78.3256+618.784C82.5386+553.39+134.342+493.077+198.449+478.89C216.401+474.917+246.833+474.706+264.605+478.479C294.091+484.735+327.458+501.413+353.421+522.803C360.452+528.597+389.814+556.992+418.673+585.913L471.153+638.476L464.562+645.892C428.209+687.012+398.406+746.092+386.54+800.534C380.893+826.445+378.451+828.905+354.162+832.665C330.381+836.348+291.581+844.273+278.035+848.238C262.628+852.746+221.154+870.571+219.211+873.529C218.494+874.623+218.771+877.247+219.87+879.298C221.826+882.952+224.513+882.973+350.619+882.016L479.392+881.109L508.145+872.788C536.152+864.745+543.573+861.37+543.573+856.559C543.573+851.768+538.203+850.376+514.821+849.142C474.193+847.002+446.632+840.737+438.198+831.76C434.164+827.466+433.808+825.791+434.821+814.953C436.991+791.716+448.91+760.419+467.858+728.114C478.256+710.392+498.411+682.201+503.945+677.611C506.69+675.33+518.208+686.306+602.482+771.204C683.489+852.815+698.659+867.252+702.748+866.775C710.059+865.92+709.737+859.229+701.923+846.506C692.194+830.666+688.859+820.12+688.577+804.407L688.329+790.648L614.016+717.487C573.149+677.271+539.782+643.308+539.782+642.019C539.782+638.797+557.892+623.417+576.777+610.63C608.079+589.43+641.393+575.847+656.199+578.249C659.89+578.85+666.887+582.852+672.511+587.561C683.296+596.591+692.118+612.929+703.736+645.396C707.085+654.758+711.108+663.163+712.634+664.018C718.68+667.4+720.631+662.351+724.828+633.532L729.03+604.861L723.673+580.227C679.571+375.822+681.079+381.838+669.381+355.967C645.073+302.213+643.66+299.613+639.473+299.613Z" fill="none" stroke-linecap="round" opacity="1" stroke-linejoin="round"/>
<path stroke="#000000" stroke-width="1" d="M303.081+543.317C299.967+543.665+294.352+548.257+280.26+561.031C257.769+581.416+250.2+591.761+231.734+627.437C228.618+633.456+226.564+639.699+227.202+641.36C228.13+643.78+230.743+642.47+240.384+634.851C257.713+621.155+267.11+610.648+276.224+594.811C280.637+587.139+288.686+575.162+294.02+568.117C306.076+552.188+308.454+547.126+305.554+544.224C304.863+543.535+304.12+543.203+303.081+543.317Z" fill="none" stroke-linecap="round" opacity="1" stroke-linejoin="round"/>
<path stroke="#000000" stroke-width="1" d="M223.74+608.323C222.818+608.323+213.1+616.253+202.156+626.035C183.973+642.288+181.431+645.476+172.33+662.945C166.854+673.464+162.283+684.054+162.198+686.427C161.972+692.61+164.735+691.848+177.028+682.306C196.651+667.078+204.336+656.868+225.388+618.455C227.729+614.189+226.786+608.323+223.74+608.323Z" fill="none" stroke-linecap="round" opacity="1" stroke-linejoin="round"/>
</g>
</g>
</svg>
