<?xml version="1.0" encoding="UTF-8" standalone="no"?> <!-- Created with Vectornator for iOS (http://vectornator.io/) --><!DOCTYPE svg PUBLIC "-//W3C//DTD SVG 1.1//EN" "http://www.w3.org/Graphics/SVG/1.1/DTD/svg11.dtd">
<svg height="100%" style="fill-rule:nonzero;clip-rule:evenodd;stroke-linecap:round;stroke-linejoin:round;" xmlns:xlink="http://www.w3.org/1999/xlink" xmlns="http://www.w3.org/2000/svg" xml:space="preserve" width="100%" xmlns:vectornator="http://vectornator.io" version="1.1" viewBox="0 0 1000 1000">
<metadata>
<vectornator:setting key="DimensionsVisible" value="1"/>
<vectornator:setting key="PencilOnly" value="0"/>
<vectornator:setting key="SnapToPoints" value="0"/>
<vectornator:setting key="OutlineMode" value="0"/>
<vectornator:setting key="CMYKEnabledKey" value="0"/>
<vectornator:setting key="RulersVisible" value="1"/>
<vectornator:setting key="SnapToEdges" value="0"/>
<vectornator:setting key="GuidesVisible" value="1"/>
<vectornator:setting key="DisplayWhiteBackground" value="0"/>
<vectornator:setting key="doHistoryDisabled" value="0"/>
<vectornator:setting key="SnapToGuides" value="1"/>
<vectornator:setting key="TimeLapseWatermarkDisabled" value="0"/>
<vectornator:setting key="Units" value="Points"/>
<vectornator:setting key="DynamicGuides" value="0"/>
<vectornator:setting key="IsolateActiveLayer" value="0"/>
<vectornator:setting key="SnapToGrid" value="0"/>
</metadata>
<defs/>
<g id="Layer 1" vectornator:layerName="Layer 1">
<path stroke="#000000" stroke-width="1" d="M524.855+350.416C505.714+348.954+485.874+351.318+466.344+357.927C430.312+370.119+400.192+396.534+383.631+430.441C373.035+452.137+367.035+475.73+367.035+495.904C367.035+510.477+371.822+536.12+376.955+549.036C394.085+592.133+434.099+627.491+478.213+638.52C487.201+640.766+499.364+641.564+518.087+641.116C540.579+640.576+547.727+639.496+560.925+634.811C583.512+626.793+598.809+617.099+616.191+599.759C633.974+582.023+645.487+563.297+653.377+539.301C658.207+524.604+659.074+518.23+659.124+496.183C659.178+473.84+658.412+467.905+653.469+452.971C633.724+393.335+582.284+354.802+524.855+350.416ZM519.85+407.907C566.792+412.551+606.835+459.796+598.016+507.495C592.586+536.885+574.023+561.573+548.315+573.611C536.481+579.151+531.22+580.249+514.841+580.75C493.764+581.397+483.355+579.038+467.922+569.994C454.816+562.315+439.033+544.657+432.22+530.12C427.048+519.082+426.381+515.287+426.381+494.05C426.381+471.329+426.707+469.727+433.612+456.496C447.152+430.55+470.213+413.741+499.45+408.649C506.316+407.453+513.144+407.243+519.85+407.907Z" fill="none" stroke-linecap="round" opacity="1" stroke-linejoin="round"/>
<path stroke="#000000" stroke-width="1" d="M290.628+358.019C277.439+358.019+269.134+449.283+277.368+503.693C281.439+530.589+293.952+578.445+302.497+599.946C317.533+637.769+343.06+681.335+368.89+713.257C374.97+720.77+379.219+727.63+378.347+728.464C377.477+729.298+355.926+730.259+330.408+730.597C279.377+731.274+289.198+729.894+130.767+758.415C90.4122+765.679+50.2681+772.91+41.5621+774.456C24.1621+777.545+18.4086+781.349+20.6073+788.272C22.3906+793.892+24.2214+794.385+53.0603+797.269C66.1162+798.571+87.4806+801.046+100.537+802.737C113.593+804.429+139.779+807.328+158.769+809.23C177.76+811.132+194.044+813.39+194.934+814.236C195.821+815.084+192.391+823.959+187.237+833.989C179.454+849.14+177.317+855.875+174.997+873.489C170.623+906.678+174.671+932.502+188.442+959.91C194.872+972.708+211.551+989.322+223.586+994.963C243.28+1004.19+267.499+1000.67+292.296+984.948C300.272+979.889+302.471+977.364+301.94+973.634C301.346+969.447+299.468+968.602+287.937+967.329C255.701+963.774+232.443+939.7+226.737+903.995C222.488+877.394+230.473+853.733+249.642+836.214C267.255+820.114+278.421+816.868+327.161+813.31C349.713+811.663+372.023+809.776+376.771+809.138C385.83+807.918+456.97+803.319+529.864+799.215C553.525+797.883+577.815+797.141+583.83+797.64C602.702+799.203+646.374+823.544+681.936+852.255C697.942+865.178+733.884+901.429+744.712+915.588C761.759+937.881+783.993+973.931+786.995+984.206C791.283+998.88+795.621+1002.76+800.811+996.351C803.962+992.461+804.229+989.794+802.666+981.239C793.108+928.989+755.329+856.691+711.051+805.984C696.141+788.907+695.518+789.31+739.611+787.901C771.673+786.877+771.806+786.809+837.439+769.172C873.607+759.451+904.033+751.095+904.944+750.534C908.336+748.439+906.499+739.081+902.256+736.811C899.55+735.363+871.625+734.072+828.258+733.378C751.896+732.158+652.267+727.072+636.962+723.642C617.123+719.197+596.188+702.972+583.922+682.563C579.112+674.557+573.566+672.451+568.531+676.629C566.712+678.139+557.439+689.474+547.852+701.85L530.419+724.384L506.402+723.363C465.828+721.624+439.268+707.999+404.773+671.436C356.258+620.007+319.853+549.754+304.444+477.822C300.346+458.689+296.468+415.483+295.263+375.359C294.803+360.004+294.284+358.019+290.628+358.019Z" fill="none" stroke-linecap="round" opacity="1" stroke-linejoin="round"/>
</g>
</svg>
