<?xml version="1.0" encoding="UTF-8" standalone="no"?> <!-- Created with Vectornator for iOS (http://vectornator.io/) --><!DOCTYPE svg PUBLIC "-//W3C//DTD SVG 1.1//EN" "http://www.w3.org/Graphics/SVG/1.1/DTD/svg11.dtd">
<svg height="100%" style="fill-rule:nonzero;clip-rule:evenodd;stroke-linecap:round;stroke-linejoin:round;" xmlns:xlink="http://www.w3.org/1999/xlink" xmlns="http://www.w3.org/2000/svg" xml:space="preserve" width="100%" xmlns:vectornator="http://vectornator.io" version="1.1" viewBox="0 0 1000 1000">
<metadata>
<vectornator:setting key="DimensionsVisible" value="1"/>
<vectornator:setting key="PencilOnly" value="0"/>
<vectornator:setting key="SnapToPoints" value="0"/>
<vectornator:setting key="OutlineMode" value="0"/>
<vectornator:setting key="CMYKEnabledKey" value="0"/>
<vectornator:setting key="RulersVisible" value="1"/>
<vectornator:setting key="SnapToEdges" value="0"/>
<vectornator:setting key="GuidesVisible" value="1"/>
<vectornator:setting key="DisplayWhiteBackground" value="0"/>
<vectornator:setting key="doHistoryDisabled" value="0"/>
<vectornator:setting key="SnapToGuides" value="1"/>
<vectornator:setting key="TimeLapseWatermarkDisabled" value="0"/>
<vectornator:setting key="Units" value="Points"/>
<vectornator:setting key="DynamicGuides" value="0"/>
<vectornator:setting key="IsolateActiveLayer" value="0"/>
<vectornator:setting key="SnapToGrid" value="0"/>
</metadata>
<defs/>
<g id="Layer 1" vectornator:layerName="Layer 1">
<path stroke="#000000" stroke-width="1" d="M185.433+170.173C181.446+171.476+178.836+180.131+174.142+203.041C161.696+263.812+138.572+343.689+128.308+361.201C119.722+375.852+125.08+383.33+140.352+378.012C154.149+373.21+153.357+369.726+152.061+428.363C151.419+457.536+149.848+511.147+148.633+547.546C146.328+616.683+147.281+678.811+150.892+700.353C167.598+800.004+223.187+865.573+303.613+880.425C322.3+883.875+325.113+883.84+346.856+879.59C368.778+875.302+390.446+867.881+405.82+859.348C454.338+832.421+482.451+799.204+502.253+745.435C513.893+713.829+541.075+683.596+571.423+668.402C580.836+663.692+593.623+658.834+599.859+657.614C606.096+656.393+614.261+654.766+618.008+654.017C623.275+652.965+624.935+651.589+625.451+647.912C626.806+638.327+624.822+638.044+547+638.044C493.416+638.044+474.127+638.651+472.395+640.386C471.111+641.67+470.054+646.442+470.054+651.006C470.054+671.32+458.823+713.163+447.135+736.402C431.639+767.218+406.545+793.241+378.638+807.41C352.484+820.687+330.693+823.8+303.613+818.115C268.496+810.742+237.12+785.45+220.227+750.954C215.246+740.783+209.002+723.959+206.344+713.567C197.528+679.108+197.849+688.73+194.635+395.743C194.164+352.92+193.754+285.287+193.714+245.446C193.645+176.834+193.468+172.93+190.034+171.093C188.273+170.151+186.764+169.739+185.433+170.173Z" fill="none" stroke-linecap="round" opacity="1" stroke-linejoin="round"/>
<path stroke="#000000" stroke-width="1" d="M327.032+249.713L324.69+290.611C320.48+364.994+310.079+440.988+295.669+503.22L288.81+532.826L295.669+578.159C302.756+625.127+308.778+677.639+312.48+724.693C313.66+739.68+314.99+753.044+315.408+754.382C316.545+758.033+325.589+757.281+327.618+753.378C328.592+751.505+329.903+741.252+330.463+730.546C332.237+696.553+346.446+650.478+365.256+617.885C378.287+595.304+378.788+589.732+371.109+551.478C359.087+491.583+356.528+471.448+351.371+397.667C349.219+366.862+342.45+286.387+340.079+263.346C338.687+249.817+338.602+249.713+332.805+249.713L327.032+249.713Z" fill="none" stroke-linecap="round" opacity="1" stroke-linejoin="round"/>
<path stroke="#000000" stroke-width="1" d="M69.0925+391.897C47.7802+391.897+34.5989+399.966+24.5142+419.079C18.3584+430.75+18.7893+450.647+25.4349+461.984C31.1544+471.742+41.6914+481.594+50.4432+485.403C58.5207+488.92+78.6579+488.909+87.2439+485.32C112.159+474.909+124.593+444.207+113.673+420.082C104.927+400.764+90.9828+391.897+69.0925+391.897ZM69.0925+423.931C76.5971+423.931+84.6505+431.585+84.6505+438.651C84.6505+441.697+82.3595+446.043+78.9631+449.44C75.8344+452.569+71.3995+455.127+69.0925+455.127C63.199+455.127+53.5372+444.89+53.5372+438.651C53.5372+431.585+61.5905+423.931+69.0925+423.931Z" fill="none" stroke-linecap="round" opacity="1" stroke-linejoin="round"/>
<path stroke="#000000" stroke-width="1" d="M43.5007+518.106C42.1838+517.712+40.768+519.722+39.4031+524.296C16.7927+599.961+17.5528+668.673+41.9108+741.838C68.137+820.61+126.266+896.623+192.376+938.637C240.134+968.99+270.415+981.706+325.024+994.341C358.059+1001.98+382.484+1001.87+382.484+994.089C382.484+991.496+380.174+989.944+374.203+988.402C292.495+967.29+236.084+935.39+183.929+880.759C116.256+809.877+78.5643+711.474+85.7371+624.327L87.5784+602.078L76.5383+591.707C59.5189+575.729+50.5342+556.108+46.6775+526.553C46.0031+521.368+44.8174+518.502+43.5007+518.106Z" fill="none" stroke-linecap="round" opacity="1" stroke-linejoin="round"/>
</g>
</svg>
