<?xml version="1.0" encoding="UTF-8" standalone="no"?> <!-- Created with Vectornator for iOS (http://vectornator.io/) --><!DOCTYPE svg PUBLIC "-//W3C//DTD SVG 1.1//EN" "http://www.w3.org/Graphics/SVG/1.1/DTD/svg11.dtd">
<svg height="100%" style="fill-rule:nonzero;clip-rule:evenodd;stroke-linecap:round;stroke-linejoin:round;" xmlns:xlink="http://www.w3.org/1999/xlink" xmlns="http://www.w3.org/2000/svg" xml:space="preserve" width="100%" xmlns:vectornator="http://vectornator.io" version="1.1" viewBox="0 0 1000 1000">
<metadata>
<vectornator:setting key="DimensionsVisible" value="1"/>
<vectornator:setting key="PencilOnly" value="0"/>
<vectornator:setting key="SnapToPoints" value="0"/>
<vectornator:setting key="OutlineMode" value="0"/>
<vectornator:setting key="CMYKEnabledKey" value="0"/>
<vectornator:setting key="RulersVisible" value="1"/>
<vectornator:setting key="SnapToEdges" value="0"/>
<vectornator:setting key="GuidesVisible" value="1"/>
<vectornator:setting key="DisplayWhiteBackground" value="0"/>
<vectornator:setting key="doHistoryDisabled" value="0"/>
<vectornator:setting key="SnapToGuides" value="1"/>
<vectornator:setting key="TimeLapseWatermarkDisabled" value="0"/>
<vectornator:setting key="Units" value="Points"/>
<vectornator:setting key="DynamicGuides" value="0"/>
<vectornator:setting key="IsolateActiveLayer" value="0"/>
<vectornator:setting key="SnapToGrid" value="0"/>
</metadata>
<defs/>
<g id="Layer 1" vectornator:layerName="Layer 1">
<path stroke="#000000" stroke-width="1" d="M438.613+84.5694C436.186+84.5892+372.802+185.191+360.556+208.475C356.921+215.386+355.53+230.455+350.165+322.942C346.767+381.534+343.968+429.882+343.876+430.358C343.507+432.243+310.339+428+293.076+423.877C282.987+421.467+266.862+415.486+257.239+410.533C241.166+402.256+239.385+400.645+235.698+391.09C226.987+368.517+232.471+340.995+255.333+292.729C264.77+272.801+266.133+268.491+264.004+264.517C261.576+259.979+259.182+258.899+253.329+259.656C251.814+259.851+242.777+267.564+233.316+276.812C223.852+286.056+212.844+296.118+208.822+299.21C204.796+302.3+198.86+309.428+195.667+315.03C192.477+320.636+182.257+338.152+172.887+354.012C129.392+427.64+78.4701+527.337+76.3382+543.108C69.1037+596.656+56.4678+667.384+33.4499+782.815C18.9902+855.309+18.4198+859.204+22.0126+863.639C28.8415+872.072+32.4983+868.418+58.7065+826.564C81.9775+789.4+114.112+738.869+131.143+712.761C138.011+702.233+138.725+698.899+134.763+694.94C130.563+690.738+126.128+691.75+112.462+699.991C97.5048+709.01+97.3493+708.686+104.263+683.405C116.701+637.943+136.477+585.807+141.342+585.807C143.172+585.807+156.247+590.404+170.411+596.006C224.279+617.325+276.646+631.535+310.516+633.941C321.554+634.725+331.024+636.092+331.582+636.991C332.137+637.888+329.956+676.391+326.815+722.579C319.986+823.032+320.315+869.653+328.053+896.331C342.745+946.978+379.807+983.556+430.226+997.266C438.97+999.639+450.545+1000.36+471.211+999.837C497.008+999.181+501.973+998.455+518.391+992.31C552.703+979.46+584.974+952.389+603.408+921.112L611.414+907.576L623.327+933.598C629.839+947.909+636.054+960.889+637.241+962.475C641.075+967.602+644.536+960.746+647.251+942.367C648.648+932.885+651.756+921.249+654.208+916.442C656.66+911.636+658.688+906.786+658.688+905.67C658.688+902.532+640.309+864.633+626.282+838.763C602.831+795.521+579.438+760.795+558.421+738.304C547.28+726.385+540.146+724.735+536.309+733.159C534.26+737.655+535.586+743.681+544.029+769.283C559.254+815.453+562.581+848.194+554.417+871.456C545.194+897.734+525.582+918.352+500.567+927.974C484.067+934.321+453.644+934.129+436.423+927.593C404.78+915.585+383.62+879.291+383.62+837.046C383.62+818.417+396.6+636.949+398.107+634.512C398.653+633.63+407.373+631.749+417.456+630.318C474.444+622.224+552.254+595.924+612.366+564.363C629.662+555.28+637.381+552.313+641.34+553.307C644.308+554.051+661.46+567.184+679.464+582.474C712.742+610.725+719.214+614.141+725.406+606.681C727.919+603.649+727.611+601.701+723.307+593.911C716.152+580.952+705.621+561.545+671.934+499.363C631.632+424.963+600.443+367.666+584.44+338.381C572.207+315.997+568.587+311.413+543.074+286.818C527.672+271.968+513.645+259.75+511.91+259.75C507.335+259.75+503.425+264.371+503.425+269.757C503.425+272.325+506.539+279.355+510.385+285.388C532.515+320.124+545.749+360.691+540.786+378.698C535.431+398.147+526.421+404.446+489.13+414.916C464.205+421.916+417.663+429.897+415.358+427.592C414.598+426.832+420.811+350.937+429.082+258.893C437.357+166.849+443.545+89.9202+442.807+88.0018C442.072+86.0834+440.178+84.5475+438.613+84.5694ZM567.855+460.571C572.652+462.092+591.69+482.738+595.02+490.021C598.482+497.597+591.681+504.975+570.048+517.376C534.452+537.78+485.765+555.622+440.236+564.839C425.264+567.871+410.27+570.369+406.97+570.369C401.627+570.369+401.175+569.704+402.206+564.269C402.841+560.914+403.932+548.162+404.683+535.962C406.912+499.793+407.028+499.363+416.883+499.363C429.805+499.363+473.371+491.384+495.419+484.97C506.301+481.804+526.189+474.713+539.548+469.245C553.441+463.553+565.528+459.829+567.855+460.571ZM200.815+465.145C207.757+465.539+217.023+468.333+232.934+473.627C268.35+485.415+293.762+492.07+319.095+496.215C329.331+497.893+338.17+499.659+338.728+500.22C339.289+500.778+338.95+517.315+338.063+536.914L336.44+572.561L323.957+572.369C297.3+571.961+233.895+554.42+203.103+538.914C173.741+524.131+164.024+514.121+164.024+498.982C164.024+490.253+173.049+476.571+182.61+470.77C189.226+466.753+193.871+464.749+200.815+465.145Z" fill="none" stroke-linecap="round" opacity="1" stroke-linejoin="round"/>
</g>
</svg>
