<?xml version="1.0" encoding="UTF-8" standalone="no"?> <!-- Created with Vectornator for iOS (http://vectornator.io/) --><!DOCTYPE svg PUBLIC "-//W3C//DTD SVG 1.1//EN" "http://www.w3.org/Graphics/SVG/1.1/DTD/svg11.dtd">
<svg height="100%" style="fill-rule:nonzero;clip-rule:evenodd;stroke-linecap:round;stroke-linejoin:round;" xmlns:xlink="http://www.w3.org/1999/xlink" xmlns="http://www.w3.org/2000/svg" xml:space="preserve" width="100%" xmlns:vectornator="http://vectornator.io" version="1.1" viewBox="0 0 1000 1000">
<metadata>
<vectornator:setting key="DimensionsVisible" value="1"/>
<vectornator:setting key="PencilOnly" value="0"/>
<vectornator:setting key="SnapToPoints" value="0"/>
<vectornator:setting key="OutlineMode" value="0"/>
<vectornator:setting key="CMYKEnabledKey" value="0"/>
<vectornator:setting key="RulersVisible" value="1"/>
<vectornator:setting key="SnapToEdges" value="0"/>
<vectornator:setting key="GuidesVisible" value="1"/>
<vectornator:setting key="DisplayWhiteBackground" value="0"/>
<vectornator:setting key="doHistoryDisabled" value="0"/>
<vectornator:setting key="SnapToGuides" value="1"/>
<vectornator:setting key="TimeLapseWatermarkDisabled" value="0"/>
<vectornator:setting key="Units" value="Points"/>
<vectornator:setting key="DynamicGuides" value="0"/>
<vectornator:setting key="IsolateActiveLayer" value="0"/>
<vectornator:setting key="SnapToGrid" value="0"/>
</metadata>
<defs/>
<g id="Layer 1" vectornator:layerName="Layer 1">
<path stroke="#000000" stroke-width="1" d="M366.222+399.573C331.34+399.509+324.019+401.254+294.707+416.635C246.274+442.052+211.831+486.919+201.501+537.977C196.389+563.243+190.906+612.992+190.883+634.448C190.871+643.503+190.319+655.707+189.611+661.585L188.342+672.202L159.48+674.836C121.058+678.269+46.9898+687.464+32.5154+690.626C23.0565+692.691+20.8116+694.053+20.2627+697.887C19.7835+701.227+20.9626+703.114+24.436+704.421C35.6751+708.65+120.004+720.51+170.371+724.933L184.622+726.202L184.622+768.766C184.656+852.476+186.181+893.12+189.521+896.46C193.558+900.496+196.404+898.553+201.774+887.837C207.074+877.263+215.638+867.592+221.92+865.15C228.913+862.428+240.945+866.724+250.598+875.404C255.358+879.685+268.63+897.459+280.186+914.884C291.742+932.309+302.281+947.248+303.6+948.099C306.832+950.187+307.956+950.097+310.497+947.556C311.972+946.083+310.454+935.895+305.688+915.427C283.956+822.078+271.75+712.309+273.925+629.729C276.03+549.652+286.872+508.898+312.585+483.794C327.963+468.782+342.124+463.485+367.311+463.465C397.654+463.447+420.815+475.163+437.012+498.678C445.477+510.971+445.576+515.586+437.555+518.644C429.403+521.754+407.348+539.438+395.174+552.588C363.272+587.046+347.58+631.097+349.976+679.373C351.617+712.437+359.427+735.719+377.023+760.327C392.212+781.568+429.106+804.246+456.162+808.881C474.804+812.073+478.701+809.671+490.103+788.099C505.78+758.43+504.708+754.742+480.391+752.703C462.452+751.199+448.175+744.159+433.924+729.923C406.021+702.045+400.268+653.772+420.586+618.112C435.652+591.667+458.532+573.539+485.656+566.473C531.046+554.65+579.609+577.576+599.282+620.2C607.379+637.744+609.438+664.547+604.002+680.915C598.402+697.774+599.291+698.433+628.234+698.433C652.609+698.433+653.236+698.258+657.456+692.894C663.273+685.5+664.966+675.847+664.626+651.966C664.037+610.77+649.321+575.699+620.428+546.96C593.442+520.116+558.252+503.513+522.232+500.493L507.711+499.224L503.625+490.058C487.419+453.416+452.886+421.029+414.321+406.29C397.654+399.919+395.435+399.628+366.222+399.573Z" fill="none" stroke-linecap="round" opacity="1" stroke-linejoin="round"/>
<path stroke="#000000" stroke-width="1" d="M503.355+608.766C489.461+610.21+476.125+617.761+467.232+631.001C456.65+646.756+456.545+666.403+466.869+683.003C473.848+694.225+480.263+699.513+492.008+703.695C520.512+713.848+551.651+695.099+557.445+664.216C559.78+651.76+553.274+633.548+542.831+623.104C531.676+611.949+517.248+607.32+503.355+608.766Z" fill="none" stroke-linecap="round" opacity="1" stroke-linejoin="round"/>
</g>
</svg>
