<?xml version="1.0" encoding="UTF-8" standalone="no"?> <!-- Created with Vectornator for iOS (http://vectornator.io/) --><!DOCTYPE svg PUBLIC "-//W3C//DTD SVG 1.1//EN" "http://www.w3.org/Graphics/SVG/1.1/DTD/svg11.dtd">
<svg height="100%" style="fill-rule:nonzero;clip-rule:evenodd;stroke-linecap:round;stroke-linejoin:round;" xmlns:xlink="http://www.w3.org/1999/xlink" xmlns="http://www.w3.org/2000/svg" xml:space="preserve" width="100%" xmlns:vectornator="http://vectornator.io" version="1.1" viewBox="0 0 1000 1000">
<metadata>
<vectornator:setting key="DimensionsVisible" value="1"/>
<vectornator:setting key="PencilOnly" value="0"/>
<vectornator:setting key="SnapToPoints" value="0"/>
<vectornator:setting key="OutlineMode" value="0"/>
<vectornator:setting key="CMYKEnabledKey" value="0"/>
<vectornator:setting key="RulersVisible" value="1"/>
<vectornator:setting key="SnapToEdges" value="0"/>
<vectornator:setting key="GuidesVisible" value="1"/>
<vectornator:setting key="DisplayWhiteBackground" value="0"/>
<vectornator:setting key="doHistoryDisabled" value="0"/>
<vectornator:setting key="SnapToGuides" value="1"/>
<vectornator:setting key="TimeLapseWatermarkDisabled" value="0"/>
<vectornator:setting key="Units" value="Points"/>
<vectornator:setting key="DynamicGuides" value="0"/>
<vectornator:setting key="IsolateActiveLayer" value="0"/>
<vectornator:setting key="SnapToGrid" value="0"/>
</metadata>
<defs/>
<g id="Layer 1" vectornator:layerName="Layer 1">
<path stroke="#000000" stroke-width="1" d="M217.099+324.247C215.936+324.436+214.82+325.165+213.649+326.336C209.493+330.492+209.298+369.077+212.922+497.175C214.189+541.932+214.858+606.145+214.465+639.859C213.756+700.976+213.753+701.218+208.199+713.064C193.723+743.935+165.348+759.978+131.998+756.203C114.853+754.265+103.847+750.027+90.8554+740.218C76.344+729.264+69.3921+717.127+67.2413+699.259C66.3113+691.534+64.4861+684.152+63.2451+682.911C59.2169+678.882+52.6399+684.713+44.3538+699.529C37.2594+712.215+36.3353+715.593+35.5418+732.136C34.792+747.876+35.3703+751.968+39.2677+760.019C48.6437+779.387+74.0219+796.962+103.661+804.614C110.52+806.384+116.594+808.375+117.193+808.974C119.521+811.299+148.204+809.901+163.694+806.701C216.904+795.712+256.448+753.738+265.963+698.259L268.596+683.181L277.859+683.181C296.427+683.181+329.996+694.995+338.622+704.525C340.973+707.126+343.06+713.43+343.708+719.874C344.702+729.752+345.42+730.828+350.427+731.409C354.807+731.917+357.763+729.906+364.686+721.873C385.644+697.559+404.968+672.648+408.828+665.016C418.991+644.919+536.161+368.211+536.161+364.302C536.164+359.242+530.29+355.487+525.355+357.399C523.48+358.123+503.482+377.677+480.94+400.812C458.401+423.946+429.771+453.271+417.273+465.931C404.776+478.594+394.476+489.391+394.476+490.002C394.476+490.609+395.546+492.928+396.749+495.178C399.469+500.264+404.962+500.305+419.817+495.178C426.199+492.975+431.788+491.437+432.169+491.818C434.075+493.725+399.495+555.473+381.217+582.822C365.831+605.843+355.473+617.965+348.338+621.151C337.776+625.865+274.915+622.79+268.233+617.245C266.155+615.518+265.6+591.285+265.6+506.62L265.6+398.088L259.787+391.729C253.265+384.577+232.508+348.895+227.271+335.782C224.007+327.606+220.586+323.683+217.099+324.247Z" fill="none" stroke-linecap="round" opacity="1" stroke-linejoin="round"/>
<path stroke="#000000" stroke-width="1" d="M26.1891+453.216C14.9735+454.896+15.9646+457.66+59.4291+541.86C82.4648+586.481+108.006+635.79+116.103+651.484C124.2+667.179+134.186+683.637+138.354+687.997C146.983+697.015+152.993+698.099+154.612+691.083C155.217+688.468+156.522+667.463+157.609+644.309C159.733+599.182+160.053+601.341+148.709+574.649C138.729+551.163+131.701+550.271+129.365+572.106C128.545+579.753+127.037+586.001+126.095+586.001C124.435+586.001+107.674+562.666+55.4329+488.092C35.5215+459.668+29.6419+452.702+26.1891+453.216Z" fill="none" stroke-linecap="round" opacity="1" stroke-linejoin="round"/>
</g>
</svg>
