<?xml version="1.0" encoding="UTF-8" standalone="no"?> <!-- Created with Vectornator for iOS (http://vectornator.io/) --><!DOCTYPE svg PUBLIC "-//W3C//DTD SVG 1.1//EN" "http://www.w3.org/Graphics/SVG/1.1/DTD/svg11.dtd">
<svg height="100%" style="fill-rule:nonzero;clip-rule:evenodd;stroke-linecap:round;stroke-linejoin:round;" xmlns:xlink="http://www.w3.org/1999/xlink" xmlns="http://www.w3.org/2000/svg" xml:space="preserve" width="100%" xmlns:vectornator="http://vectornator.io" version="1.1" viewBox="0 0 1000 1000">
<metadata>
<vectornator:setting key="DimensionsVisible" value="1"/>
<vectornator:setting key="PencilOnly" value="0"/>
<vectornator:setting key="SnapToPoints" value="0"/>
<vectornator:setting key="OutlineMode" value="0"/>
<vectornator:setting key="CMYKEnabledKey" value="0"/>
<vectornator:setting key="RulersVisible" value="1"/>
<vectornator:setting key="SnapToEdges" value="0"/>
<vectornator:setting key="GuidesVisible" value="1"/>
<vectornator:setting key="DisplayWhiteBackground" value="0"/>
<vectornator:setting key="doHistoryDisabled" value="0"/>
<vectornator:setting key="SnapToGuides" value="1"/>
<vectornator:setting key="TimeLapseWatermarkDisabled" value="0"/>
<vectornator:setting key="Units" value="Points"/>
<vectornator:setting key="DynamicGuides" value="0"/>
<vectornator:setting key="IsolateActiveLayer" value="0"/>
<vectornator:setting key="SnapToGrid" value="0"/>
</metadata>
<defs/>
<g id="Layer 1" vectornator:layerName="Layer 1">
<path stroke="#000000" stroke-width="1" d="M21.4529+180.416C20.3622+180.99+20.1607+182.779+20.1607+185.422C20.1607+187.349+34.7035+219.538+52.43+256.952L84.6137+325.03L118.181+360.063C136.625+379.369+165.794+409.94+182.979+427.968L214.216+460.756L205.673+486.211C200.959+500.188+195.236+520.697+192.988+531.855C188.672+553.306+184.42+602.46+185.74+615.984C186.171+620.402+187.129+631.308+187.811+640.144C194.029+720.7+233.67+808.639+292.217+871.562C325.533+907.366+360.058+932.578+406.719+955.343C441.766+972.443+452.678+976.458+468.499+977.951C479.179+978.959+480.06+978.683+480.06+974.845C480.06+971.772+477.056+969.337+468.499+965.267C444.764+953.976+407.55+930.733+388.683+915.481C315.825+856.575+267.411+774.409+250.8+681.301C244.983+648.706+244.997+600.431+250.8+568.785C255.591+542.657+263.377+517.619+266.763+517.619C269.971+517.619+317.272+568.324+319.484+574.136C320.823+577.662+319.917+583.648+316.032+596.485C311.333+612.008+310.723+617.406+310.681+644.114C310.64+671.165+311.181+676.033+316.032+691.915C325.028+721.379+335.929+740.135+356.328+761.288C403.737+810.456+472.069+822.641+531.66+792.611C542.925+786.931+551.12+783.971+552.713+784.932C554.149+785.796+569.33+799.265+586.449+814.871C665.24+886.699+754.911+968.058+761.78+973.981C770.588+981.574+774.211+982.107+777.312+976.311C779.153+972.876+778.687+970.8+774.551+964.75C771.784+960.7+752.409+928.375+731.496+892.873L693.443+828.331L640.55+771.383C559.881+684.526+559.751+684.38+557.112+682.77C552.363+679.868+548.077+683.88+542.359+696.487C521.883+741.646+467.844+758.919+420.436+735.488C391.971+721.42+373.878+696.145+369.184+663.787C367.132+649.642+367.273+644.722+370.219+629.359C374.339+607.861+379.19+596.04+390.842+579.573C411.846+549.883+449.08+535.119+481.785+543.504C508.287+550.299+536.232+570.55+536.232+582.936C536.232+589.908+531.591+602.198+526.999+607.27C525.298+609.153+524.219+612.806+524.583+615.379C525.237+620.001+525.536+620.012+550.297+620.04C573.386+620.054+576.431+620.529+588.434+625.733C606.503+633.57+608.138+633.895+611.732+630.911C614.289+628.787+614.662+625.764+613.629+615.123C611.931+597.628+615.424+574.266+621.742+561.281C624.558+555.488+626.582+548.759+626.228+546.265C625.604+541.878+625+541.701+607.072+542.383L588.608+543.159L572.817+527.368C525.872+480.341+460.232+467.548+404.043+494.494C387.995+502.19+387.106+502.35+380.488+499.586C376.697+498.004+367.019+490.618+359.001+483.105C350.983+475.592+324.619+451.343+300.327+429.263C276.037+407.185+249.818+383.204+242.086+375.94C224.909+359.795+128.496+271.898+72.1886+221.057C35.8301+188.227+24.7276+178.699+21.4529+180.416Z" fill="none" stroke-linecap="round" opacity="1" stroke-linejoin="round"/>
</g>
</svg>
