<?xml version="1.0" encoding="UTF-8" standalone="no"?> <!-- Created with Vectornator for iOS (http://vectornator.io/) --><!DOCTYPE svg PUBLIC "-//W3C//DTD SVG 1.1//EN" "http://www.w3.org/Graphics/SVG/1.1/DTD/svg11.dtd">
<svg height="100%" style="fill-rule:nonzero;clip-rule:evenodd;stroke-linecap:round;stroke-linejoin:round;" xmlns:xlink="http://www.w3.org/1999/xlink" xmlns="http://www.w3.org/2000/svg" xml:space="preserve" width="100%" xmlns:vectornator="http://vectornator.io" version="1.1" viewBox="0 0 1000 1000">
<metadata>
<vectornator:setting key="DimensionsVisible" value="1"/>
<vectornator:setting key="PencilOnly" value="0"/>
<vectornator:setting key="SnapToPoints" value="0"/>
<vectornator:setting key="OutlineMode" value="0"/>
<vectornator:setting key="CMYKEnabledKey" value="0"/>
<vectornator:setting key="RulersVisible" value="1"/>
<vectornator:setting key="SnapToEdges" value="0"/>
<vectornator:setting key="GuidesVisible" value="1"/>
<vectornator:setting key="DisplayWhiteBackground" value="0"/>
<vectornator:setting key="doHistoryDisabled" value="0"/>
<vectornator:setting key="SnapToGuides" value="1"/>
<vectornator:setting key="TimeLapseWatermarkDisabled" value="0"/>
<vectornator:setting key="Units" value="Points"/>
<vectornator:setting key="DynamicGuides" value="0"/>
<vectornator:setting key="IsolateActiveLayer" value="0"/>
<vectornator:setting key="SnapToGrid" value="0"/>
</metadata>
<defs/>
<g id="Layer 1" vectornator:layerName="Layer 1">
<path stroke="#141414" stroke-width="1" d="M328.741+231.484C312.775+231.372+296.608+233.8+280.836+239.128C201.121+266.047+160.235+357.489+193.373+434.674C211.407+476.683+245.616+505.74+293.048+519.376C300.894+521.635+312.276+522.483+331.163+522.129C353.549+521.708+360.711+520.692+373.874+516.118C410.801+503.286+440.533+477.626+457.375+443.923C482.108+394.417+479.421+342.321+449.832+297.168C422.604+255.62+376.634+231.816+328.741+231.484Z" fill="none" stroke-linecap="round" opacity="1" stroke-linejoin="round"/>
<path stroke="#141414" stroke-width="1" d="M616.005+306.138C615.21+305.935+614.3+305.961+613.226+306.212C611.796+306.546+610.148+307.269+608.215+308.4C602.929+311.496+597.546+319.744+584.559+344.617C546.422+417.652+508.734+470.203+465.075+511.168C448.295+526.912+438.643+533.995+421.547+542.998C390.975+559.094+385.909+562.502+385.1+567.84C384.54+571.548+386.572+573.682+395.12+578.086C406.561+583.979+415.419+594.807+423.673+613.263C427.59+622.018+428.299+627.65+428.246+649.481C428.191+673.392+427.707+676.288+422.066+688.131C399.567+735.365+351.823+758.408+303.214+745.469C244.12+729.738+211.158+673.372+230.179+620.589C236.38+603.386+243.704+593.24+256.057+584.756C274.9+571.811+273.834+573.139+271.166+567.177C269.52+563.497+263.392+559.087+252.282+553.724C229.059+542.511+212.289+530.446+190.38+509.07C149.125+468.818+112.063+415.254+75.7794+343.468C63.1236+318.425+57.8534+310.106+52.6053+306.94C44.9441+302.316+41.2273+304.057+41.2792+312.327C41.3061+316.755+85.9762+428.534+94.0866+444.478C97.1302+450.46+96.9518+451.016+89.6427+458.517C85.4767+462.79+76.4907+473.941+69.6693+483.373C0.241964+579.395+4.23314+708.799+79.1309+787.579C93.0758+802.244+119.996+823.187+131.251+828.185C140.225+832.171+143.161+832.463+145.032+829.481C145.837+828.198+143.833+825.004+140.544+822.417C112.868+800.639+85.9962+766.602+74.4583+738.678C61.2385+706.677+56.5339+682.72+56.7323+647.855C56.9731+607.496+65.5546+573.791+84.4819+538.727C94.1285+520.86+113.283+493.584+116.251+493.494C117.045+493.47+122.326+501.955+127.881+512.358C137.173+529.755+157.294+561.731+170.381+579.838C173.683+584.406+175.219+588.554+174.29+590.6C164.925+611.197+161.875+624.973+161.694+647.715C161.476+676.109+166.996+696.401+182.025+722.174C214.934+778.601+270.49+811.061+334.8+811.487C362.447+811.67+378.72+808.389+401.438+798.043C470.182+766.733+508.213+680.669+484.787+609.317C481.776+600.148+479.351+591.502+479.361+590.122C479.37+588.741+483.115+583.133+487.772+577.681C498.428+565.215+516.752+537.216+530.224+512.803C535.926+502.474+541.31+494.057+542.103+494.094C545.07+494.224+563.861+521.843+573.269+539.839C591.731+575.148+599.868+608.963+599.571+649.322C599.313+684.19+594.286+707.987+580.643+739.811C568.701+767.664+541.493+801.308+513.268+822.941C508.582+826.532+507.593+828.279+509.423+830.136C515.293+836.081+550.864+813.789+575.323+788.737C651.258+710.956+656.963+581.616+588.814+484.683C582.118+475.161+573.282+463.8+569.173+459.472C561.964+451.875+561.792+451.409+564.915+445.467C573.235+429.635+619.38+318.455+619.468+314.028C619.561+309.375+618.394+306.741+616.005+306.138Z" fill="none" stroke-linecap="round" opacity="1" stroke-linejoin="round"/>
</g>
</svg>
